<?xml version="1.0" standalone="yes"?>
<svg xmlns="http://www.w3.org/2000/svg" width="2497" height="1399" style="background:#FFFFFF;zoom: 1; ;">
    <defs>
        <clipPath clipPathUnits="userSpaceOnUse" id="BBoxClipElem">
            <rect x="0" y="0" width="2497" height="1399"></rect>
        </clipPath>
    </defs>
    <path d="M759.673583984375,453.14044189453125 C749.3997802734375,457.12530517578125 734.8775634765625,462.92437744140625 728.8523559570312,465.0941162109375 C697.830078125,443.978515625 672.3514404296875,425.54437255859375 654.51904296875,405.24761962890625 C683.934326171875,395.755859375 714.703125,385.18109130859375 744.3732299804688,372.6483154296875 C752.7269287109375,399.0106201171875 756.8960571289062,425.38055419921875 759.673583984375,453.14044189453125 M847.6048583984375,310.111572265625 C853.6566772460938,304.768798828125 859.586669921875,299.5634765625 865.7603759765625,294.0828857421875 C857.5492553710938,287.7718505859375 850.9425659179688,283.32568359375 842.5892333984375,278.5712890625 C837.4093627929688,254.4935302734375 828.545654296875,232.7235107421875 813.6983642578125,210.499267578125 C859.7478637695312,216.90234375 890.1680908203125,230.3983154296875 944.6847534179688,255.9520263671875 C921.5072021484375,311.8212890625 886.230712890625,357.4295654296875 843.156982421875,399.60137939453125 C848.1428833007812,370.0850830078125 849.9430541992188,341.2078857421875 847.6048583984375,310.111572265625 M499.8807067871094,306.458251953125 C486.5019836425781,238.238037109375 505.6283264160156,189.1395263671875 541.91943359375,109.2464599609375 C562.429931640625,137.3892822265625 581.63427734375,156.4454345703125 610.087646484375,171.6185302734375 C591.875732421875,185.2763671875 577.6227416992188,197.6912841796875 562.1243896484375,216.1162109375 C558.7562866210938,214.4541015625 555.3838500976562,212.884765625 552.0198364257812,211.1300048828125 C553.237548828125,215.443115234375 554.4530639648438,219.6280517578125 555.6696166992188,223.8768310546875 C533.2232666015625,248.904541015625 515.8781127929688,274.610107421875 499.8807067871094,306.458251953125 M759.673583984375,1213.894760131836 C749.3997802734375,1217.8793182373047 734.8775634765625,1223.6788787841797 728.8523559570312,1225.8486022949219 C697.830078125,1204.7328796386719 672.3514404296875,1186.2988739013672 654.51904296875,1166.0021667480469 C683.934326171875,1156.5100708007812 714.703125,1145.9356079101562 744.3732299804688,1133.4027099609375 C752.7269287109375,1159.7653198242188 756.8960571289062,1186.134765625 759.673583984375,1213.894760131836 M847.6048583984375,1070.8658752441406 C853.6566772460938,1065.52294921875 859.586669921875,1060.3177795410156 865.7603759765625,1054.8372497558594 C857.5492553710938,1048.5260314941406 850.9425659179688,1044.079833984375 842.5892333984375,1039.3256225585938 C837.4093627929688,1015.2476501464844 828.545654296875,993.4779968261719 813.6983642578125,971.2537231445312 C859.7478637695312,977.6563415527344 890.1680908203125,991.15283203125 944.6847534179688,1016.7066040039062 C921.5072021484375,1072.5756530761719 886.230712890625,1118.1836242675781 843.156982421875,1160.3555297851562 C848.1428833007812,1130.8394165039062 849.9430541992188,1101.9621887207031 847.6048583984375,1070.8658752441406 M499.8807067871094,1067.2127075195312 C486.5019836425781,998.9925537109375 505.6283264160156,949.8936767578125 541.91943359375,870.0010375976562 C562.429931640625,898.1434326171875 581.63427734375,917.1998291015625 610.087646484375,932.3729248046875 C591.875732421875,946.0303649902344 577.6227416992188,958.4456787109375 562.1243896484375,976.8705139160156 C558.7562866210938,975.2084350585938 555.3838500976562,973.6387634277344 552.0198364257812,971.8844604492188 C553.237548828125,976.1974182128906 554.4530639648438,980.382080078125 555.6696166992188,984.6309814453125 C533.2232666015625,1009.6590576171875 515.8781127929688,1035.3645935058594 499.8807067871094,1067.2127075195312 "
          id="id000"
          style="opacity:1; stroke:#3AB2F8; stroke-width:3.0; fill:#3AB2F8; stroke-linecap:round; stroke-linejoin:miter; stroke-miterlimit:4; "></path>
    <path d="M1242.3314208984375,299.34423828125 C1234.9765625,297.8809814453125 1228.4957275390625,293.873779296875 1220.2666015625,294.954833984375 C1212.855712890625,295.928466796875 1207.067626953125,301.3238525390625 1204.9674072265625,307.8607177734375 C1202.32080078125,316.098388671875 1206.068115234375,323.953125 1214.9132080078125,327.2275390625 C1229.7476806640625,332.7200927734375 1249.30126953125,328.8885498046875 1263.21240234375,340.752197265625 C1273.1959228515625,349.266357421875 1276.1309814453125,357.384521484375 1276.4903564453125,367.9173583984375 C1277.0147705078125,383.28656005859375 1270.9881591796875,394.37567138671875 1259.871826171875,401.80511474609375 C1249.1871337890625,408.94537353515625 1232.4569091796875,411.252197265625 1213.6131591796875,409.7138671875 C1198.2713623046875,408.46136474609375 1181.0670166015625,403.8450927734375 1165.2353515625,398.88787841796875 C1167.75537109375,389.67498779296875 1170.2755126953125,380.46240234375 1172.795654296875,371.249755859375 C1185.113037109375,374.3511962890625 1196.677001953125,378.16259765625 1209.7479248046875,380.5548095703125 C1224.0860595703125,383.1788330078125 1231.3878173828125,379.22662353515625 1234.0245361328125,371.43798828125 C1236.954345703125,362.78466796875 1226.570556640625,356.0660400390625 1217.1988525390625,353.39501953125 C1200.1663818359375,348.54052734375 1185.2320556640625,346.0048828125 1164.50830078125,339.579833984375 C1145.0838623046875,333.556884765625 1133.9385986328125,313.6907958984375 1135.5848388671875,296.6632080078125 C1137.1859130859375,280.1036376953125 1150.1904296875,266.93310546875 1168.8328857421875,259.3326416015625 C1194.1209716796875,249.023681640625 1221.433837890625,246.3619384765625 1262.696533203125,264.5653076171875 C1255.9083251953125,276.1580810546875 1249.119873046875,287.751220703125 1242.3314208984375,299.34423828125 M1423.079345703125,299.1805419921875 C1400.3944091796875,309.625244140625 1377.615478515625,318.1336669921875 1355.0244140625,329.6524658203125 C1341.456298828125,336.570556640625 1341.12158203125,352.891357421875 1345.3458251953125,362.2977294921875 C1349.706787109375,372.0076904296875 1356.662841796875,376.8887939453125 1368.3853759765625,379.140869140625 C1379.816162109375,381.33697509765625 1399.96142578125,381.1778564453125 1420.421875,373.59228515625 C1425.072509765625,382.45098876953125 1429.723388671875,391.30938720703125 1434.3740234375,400.167724609375 C1399.161376953125,415.00555419921875 1364.0889892578125,411.984619140625 1341.8828125,405.7523193359375 C1316.4454345703125,398.613037109375 1294.870361328125,371.61376953125 1294.18798828125,342.365966796875 C1293.67724609375,320.48291015625 1306.01220703125,296.2479248046875 1324.0853271484375,283.899658203125 C1337.116943359375,274.99560546875 1364.1943359375,265.0753173828125 1398.4969482421875,250.6800537109375 C1406.691162109375,266.8468017578125 1414.88525390625,283.0137939453125 1423.079345703125,299.1805419921875 M1492.74365234375,362.788330078125 C1500.1849365234375,371.94189453125 1506.1571044921875,375.29571533203125 1517.894775390625,377.46881103515625 C1533.6475830078125,380.385009765625 1547.792236328125,377.38507080078125 1565.7308349609375,370.5196533203125 C1570.3814697265625,379.37835693359375 1575.0322265625,388.237060546875 1579.6829833984375,397.09539794921875 C1544.4703369140625,411.93328857421875 1512.78125,410.421630859375 1488.590087890625,403.73736572265625 C1463.1241455078125,396.7008056640625 1440.8916015625,365.44970703125 1439.496826171875,336.2213134765625 C1438.2464599609375,310.0211181640625 1449.572265625,282.0234375 1469.9637451171875,267.3984375 C1487.934326171875,254.5101318359375 1515.6474609375,247.2554931640625 1542.5767822265625,255.59619140625 C1567.5802001953125,263.3404541015625 1584.2060546875,285.58447265625 1594.248291015625,312.5404052734375 C1560.413330078125,329.2899169921875 1526.5784912109375,346.039306640625 1492.74365234375,362.788330078125 M1483.4169921875,335.3604736328125 C1499.884765625,327.2115478515625 1516.3525390625,319.0626220703125 1532.8203125,310.913330078125 C1528.985595703125,304.5289306640625 1519.548583984375,299.0357666015625 1509.92626953125,298.9229736328125 C1500.6539306640625,298.8143310546875 1490.34423828125,304.287109375 1485.592041015625,311.750244140625 C1481.2474365234375,318.5733642578125 1480.0885009765625,329.1671142578125 1483.4169921875,335.3604736328125 M1605.5181884765625,252.191650390625 C1613.9315185546875,301.6990966796875 1622.3448486328125,351.206298828125 1630.7581787109375,400.71337890625 C1639.359130859375,403.62591552734375 1647.960205078125,406.5384521484375 1656.5611572265625,409.45068359375 C1656.8846435546875,358.6444091796875 1657.2083740234375,307.838134765625 1657.5318603515625,257.03173828125 C1640.1939697265625,255.41845703125 1622.8560791015625,253.8050537109375 1605.5181884765625,252.191650390625 M1681.7740478515625,252.191650390625 C1690.1873779296875,301.6990966796875 1698.6007080078125,351.206298828125 1707.01416015625,400.71337890625 C1715.06298828125,403.62591552734375 1723.112060546875,406.5384521484375 1731.1610107421875,409.45068359375 C1731.4844970703125,358.6444091796875 1731.80810546875,307.838134765625 1732.1317138671875,257.03173828125 C1715.3458251953125,255.41845703125 1698.5599365234375,253.8050537109375 1681.7740478515625,252.191650390625 M1830.6258544921875,252.2099609375 C1858.36083984375,268.4437255859375 1878.64111328125,292.4334716796875 1891.9991455078125,314.835205078125 C1905.000732421875,336.6392822265625 1909.3834228515625,368.43603515625 1910.911865234375,395.0047607421875 C1889.021484375,403.53253173828125 1863.587158203125,411.47296142578125 1839.0191650390625,411.2568359375 C1816.9422607421875,411.062744140625 1801.96826171875,409.7125244140625 1783.31396484375,400.506591796875 C1767.2877197265625,392.5975341796875 1757.6295166015625,378.91876220703125 1756.0648193359375,359.41015625 C1754.7906494140625,343.5216064453125 1767.2314453125,326.965087890625 1782.7113037109375,318.45654296875 C1798.6427001953125,309.699951171875 1803.2542724609375,308.642578125 1820.9512939453125,303.2734375 C1812.5157470703125,294.1112060546875 1808.22314453125,291.05126953125 1790.5833740234375,281.5322265625 C1803.9307861328125,271.7579345703125 1817.2783203125,261.9842529296875 1830.6258544921875,252.2099609375 M1847.2078857421875,334.7667236328125 C1834.310302734375,336.37939453125 1824.9344482421875,337.9287109375 1814.578369140625,343.5103759765625 C1805.111083984375,348.61328125 1797.7314453125,357.2401123046875 1800.406982421875,366.3233642578125 C1802.7763671875,374.366455078125 1811.205810546875,381.04541015625 1820.454345703125,382.22283935546875 C1830.0,383.43829345703125 1850.0438232421875,383.5313720703125 1864.4456787109375,378.00146484375 C1863.0537109375,370.018310546875 1861.0992431640625,361.4569091796875 1857.7615966796875,353.8255615234375 C1854.518310546875,346.4105224609375 1851.25830078125,341.1951904296875 1847.2078857421875,334.7667236328125 M1049.1533203125,252.2099609375 C1076.88818359375,268.4437255859375 1097.16845703125,292.4334716796875 1110.5264892578125,314.835205078125 C1123.5281982421875,336.6392822265625 1127.9107666015625,368.43603515625 1129.439453125,395.0047607421875 C1107.548828125,403.53253173828125 1082.1146240234375,411.47296142578125 1057.5465087890625,411.2568359375 C1035.4696044921875,411.062744140625 1020.4957275390625,409.7125244140625 1001.84130859375,400.506591796875 C985.815185546875,392.5975341796875 976.156982421875,378.91876220703125 974.59228515625,359.41015625 C973.3179931640625,343.5216064453125 985.7589111328125,326.965087890625 1001.2387084960938,318.45654296875 C1017.1701049804688,309.699951171875 1021.7816772460938,308.642578125 1039.4788818359375,303.2734375 C1031.0430908203125,294.1112060546875 1026.75048828125,291.05126953125 1009.1107788085938,281.5322265625 C1022.458251953125,271.7579345703125 1035.8057861328125,261.9842529296875 1049.1533203125,252.2099609375 M1065.7352294921875,334.7667236328125 C1052.837646484375,336.37939453125 1043.4620361328125,337.9287109375 1033.105712890625,343.5103759765625 C1023.6384887695312,348.61328125 1016.2589111328125,357.2401123046875 1018.9345092773438,366.3233642578125 C1021.3037719726562,374.366455078125 1029.7333984375,381.04541015625 1038.9818115234375,382.22283935546875 C1048.52734375,383.43829345703125 1068.5712890625,383.5313720703125 1082.972900390625,378.00146484375 C1081.5810546875,370.018310546875 1079.626708984375,361.4569091796875 1076.2889404296875,353.8255615234375 C1073.0457763671875,346.4105224609375 1069.7857666015625,341.1951904296875 1065.7352294921875,334.7667236328125 M584.471923828125,308.63720703125 C597.3041381835938,343.92822265625 617.357421875,378.94708251953125 647.3009033203125,410.80157470703125 C677.5629272460938,442.99420166015625 717.9266967773438,471.95513916015625 771.1473999023438,494.6964111328125 C766.287841796875,394.45941162109375 745.922607421875,301.5419921875 677.67041015625,221.67578125 C609.9766235351562,260.9345703125 541.9191284179688,323.9447021484375 498.430908203125,422.78326416015625 C513.681396484375,423.399658203125 528.90087890625,422.61614990234375 544.1358642578125,422.53240966796875 C565.369384765625,444.1173095703125 590.4508056640625,465.00238037109375 623.5731201171875,481.001953125 C565.9440307617188,473.87274169921875 520.3638305664062,469.2137451171875 464.3232116699219,444.9471435546875 C471.2930603027344,378.39404296875 499.00421142578125,316.807861328125 535.081298828125,265.451171875 C589.5442504882812,187.92236328125 663.0739135742188,133.7069091796875 713.0958862304688,120.9127197265625 C794.7434692382812,179.53564453125 829.944091796875,238.4581298828125 838.7426147460938,303.2117919921875 C848.1424560546875,372.3916015625 827.4078369140625,448.2265625 800.981201171875,537.4634399414062 C743.901123046875,523.7010498046875 680.9706420898438,506.09912109375 628.5474243164062,475.7843017578125 C588.0540161132812,452.36822509765625 555.5913696289062,420.3890380859375 526.9218139648438,387.02392578125 C545.1453857421875,356.3138427734375 560.2498168945312,335.1412353515625 584.471923828125,308.63720703125 M1737.2093505859375,451.71917724609375 C1742.7578125,451.71917724609375 1748.3062744140625,451.71917724609375 1753.854736328125,451.71917724609375 C1753.854736328125,478.41998291015625 1753.854736328125,505.1201171875 1753.854736328125,531.8206176757812 C1749.7481689453125,531.0787963867188 1745.6417236328125,530.336669921875 1741.53515625,529.5945434570312 C1740.09326171875,503.6358642578125 1738.6513671875,477.677490234375 1737.2093505859375,451.71917724609375 M1495.925048828125,451.71917724609375 C1501.5450439453125,452.6444091796875 1507.1650390625,453.57000732421875 1512.7850341796875,454.49560546875 C1512.7850341796875,473.8443603515625 1512.7850341796875,492.7608642578125 1512.7850341796875,512.5419311523438 C1512.7850341796875,516.918701171875 1514.3265380859375,517.9510498046875 1519.3106689453125,518.8109130859375 C1527.4266357421875,520.2114868164062 1528.2581787109375,520.3348999023438 1532.73193359375,521.0967407226562 C1533.34130859375,524.67138671875 1533.95068359375,528.2459716796875 1534.5601806640625,531.8206176757812 C1525.5247802734375,531.8206176757812 1520.7813720703125,531.9093627929688 1507.453857421875,531.8206176757812 C1501.0198974609375,531.7782592773438 1500.162841796875,530.0034790039062 1499.80322265625,523.0299682617188 C1498.5577392578125,498.87310791015625 1497.2177734375,475.48944091796875 1495.925048828125,451.71917724609375 M1303.435791015625,455.39288330078125 C1308.859130859375,456.358154296875 1314.282470703125,457.32342529296875 1319.705810546875,458.2890625 C1329.8280029296875,470.49359130859375 1348.76708984375,493.22747802734375 1358.1925048828125,504.44635009765625 C1359.8856201171875,506.4613037109375 1364.198974609375,504.82427978515625 1364.011474609375,502.0001220703125 C1363.2947998046875,491.20684814453125 1362.1514892578125,470.3614501953125 1361.221435546875,454.5416259765625 C1366.7088623046875,453.76849365234375 1372.196044921875,452.9949951171875 1377.683349609375,452.22149658203125 C1377.683349609375,478.7545166015625 1377.683349609375,505.28759765625 1377.683349609375,531.8206176757812 C1373.6982421875,531.8206176757812 1369.7132568359375,531.8206176757812 1365.728271484375,531.8206176757812 C1354.9417724609375,518.8329467773438 1337.0635986328125,498.26873779296875 1326.5650634765625,486.26934814453125 C1324.256591796875,483.63067626953125 1320.9049072265625,484.94915771484375 1320.892822265625,487.69293212890625 C1320.839111328125,499.8250732421875 1320.89404296875,517.1115112304688 1320.894775390625,531.8206176757812 C1316.4842529296875,531.066162109375 1312.073486328125,530.31201171875 1307.6629638671875,529.5571899414062 C1306.1192626953125,502.93707275390625 1304.8448486328125,480.1143798828125 1303.435791015625,455.39288330078125 M1211.189453125,451.71917724609375 C1216.602783203125,452.6033935546875 1222.0162353515625,453.4873046875 1227.4296875,454.3712158203125 C1227.4296875,464.06011962890625 1227.4296875,474.54547119140625 1227.4296875,483.4368896484375 C1227.4296875,486.046875 1229.2635498046875,487.85369873046875 1231.87744140625,487.91943359375 C1234.9615478515625,487.996826171875 1259.333984375,487.88507080078125 1262.4185791015625,487.82501220703125 C1265.785400390625,487.75897216796875 1267.92041015625,486.77166748046875 1267.70703125,482.9122314453125 C1267.2293701171875,474.2733154296875 1266.5826416015625,463.56878662109375 1266.020263671875,453.897216796875 C1271.533935546875,453.897216796875 1277.0477294921875,453.897216796875 1282.5615234375,453.897216796875 C1282.5615234375,479.87158203125 1282.5615234375,505.84625244140625 1282.5615234375,531.8206176757812 C1278.522705078125,531.8206176757812 1274.4840087890625,531.8206176757812 1270.4449462890625,531.8206176757812 C1269.8729248046875,522.0556640625 1269.480712890625,515.0872192382812 1268.9739990234375,505.013427734375 C1268.793701171875,501.42877197265625 1267.1971435546875,501.1339111328125 1263.246826171875,501.20196533203125 C1258.1661376953125,501.28936767578125 1237.18115234375,501.14190673828125 1232.1011962890625,501.26763916015625 C1229.47412109375,501.33270263671875 1227.4296875,502.53582763671875 1227.4296875,505.514404296875 C1227.4296875,514.9754638671875 1227.4296875,523.052001953125 1227.4296875,531.8206176757812 C1223.430419921875,531.1348266601562 1217.1873779296875,530.0728149414062 1215.431640625,529.7633056640625 C1213.94921875,502.8780517578125 1212.603515625,477.73388671875 1211.189453125,451.71917724609375 M995.9326782226562,466.76715087890625 C997.4187622070312,466.7591552734375 999.6914672851562,466.73114013671875 1000.8142700195312,467.91693115234375 C1002.292724609375,469.478271484375 1002.1470336914062,471.23870849609375 1002.2007446289062,472.546875 C1002.8395385742188,488.085205078125 1003.70068359375,510.634033203125 1004.45068359375,529.6779174804688 C1008.6721801757812,530.3920288085938 1012.8939819335938,531.1065063476562 1017.1156005859375,531.8206176757812 C1017.114990234375,512.0629272460938 1017.1139526367188,487.97576904296875 1017.1139526367188,472.546875 C1017.1139526367188,471.3204345703125 1017.02197265625,469.478271484375 1018.5006103515625,467.91693115234375 C1019.6234130859375,466.73114013671875 1021.7160034179688,466.7705078125 1023.3951416015625,466.76715087890625 C1026.1268310546875,466.7618408203125 1035.068115234375,466.787841796875 1040.904541015625,466.7982177734375 C1040.904541015625,462.37432861328125 1040.904541015625,457.95050048828125 1040.904541015625,453.52630615234375 C1003.7654418945312,453.63006591796875 1008.676025390625,453.7674560546875 981.5524291992188,451.719482421875 C980.6597290039062,456.74542236328125 979.7667846679688,461.77197265625 978.8740844726562,466.7982177734375 C984.5603637695312,466.787841796875 993.1792602539062,466.78216552734375 995.9326782226562,466.76715087890625 M1071.070068359375,516.3406982421875 C1071.095458984375,521.029052734375 1072.1646728515625,521.6243896484375 1077.75634765625,521.7438354492188 C1082.960693359375,521.855224609375 1097.1650390625,521.7758178710938 1104.8741455078125,521.7758178710938 C1105.40673828125,525.1243286132812 1105.939208984375,528.4724731445312 1106.4718017578125,531.8209838867188 C1090.7354736328125,531.8209838867188 1074.9990234375,531.8209838867188 1059.2626953125,531.8209838867188 C1057.7996826171875,505.1204833984375 1056.3367919921875,478.41998291015625 1054.873779296875,451.719482421875 C1081.142822265625,454.0953369140625 1083.6986083984375,453.70343017578125 1109.0101318359375,453.83319091796875 C1109.6966552734375,458.14727783203125 1110.3831787109375,462.46173095703125 1111.0694580078125,466.77581787109375 C1102.81884765625,466.77581787109375 1082.38037109375,466.74884033203125 1077.1751708984375,466.8118896484375 C1072.7667236328125,466.865234375 1071.09521484375,468.458251953125 1071.070068359375,472.6793212890625 C1071.0582275390625,474.65423583984375 1070.9920654296875,486.01153564453125 1070.9920654296875,488.68927001953125 C1080.6260986328125,488.647216796875 1090.26025390625,488.605224609375 1099.8944091796875,488.56317138671875 C1099.0672607421875,492.87261962890625 1098.2398681640625,497.181396484375 1097.4124755859375,501.490478515625 C1088.6055908203125,501.490478515625 1079.798828125,501.490478515625 1070.9920654296875,501.490478515625 C1070.9920654296875,504.76788330078125 1071.0594482421875,514.36572265625 1071.070068359375,516.3406982421875 M1184.8848876953125,465.86492919921875 C1159.8814697265625,469.885498046875 1152.3348388671875,472.92681884765625 1147.7503662109375,481.8221435546875 C1144.020751953125,489.05914306640625 1144.6881103515625,497.41351318359375 1147.136962890625,503.7926025390625 C1149.6600341796875,510.3658447265625 1155.85693359375,515.8253173828125 1162.0908203125,518.23291015625 C1167.2459716796875,520.2238159179688 1178.7889404296875,519.8735961914062 1187.8558349609375,517.295654296875 C1188.454345703125,520.9766845703125 1189.0528564453125,524.6573486328125 1189.6513671875,528.3387451171875 C1174.285400390625,534.2037963867188 1156.944580078125,532.7318725585938 1147.01318359375,527.2579956054688 C1135.7379150390625,521.043701171875 1129.8653564453125,506.46368408203125 1129.5797119140625,492.59375 C1129.3663330078125,482.2164306640625 1133.5806884765625,470.4188232421875 1142.1988525390625,463.35595703125 C1149.431640625,457.42816162109375 1159.2857666015625,453.47198486328125 1182.4412841796875,450.880615234375 C1183.255859375,455.87518310546875 1184.0704345703125,460.87005615234375 1184.8848876953125,465.86492919921875 M1397.171630859375,505.58843994140625 C1404.302490234375,528.9387817382812 1429.560546875,536.0169677734375 1449.157470703125,531.2385864257812 C1471.64501953125,525.75537109375 1482.1083984375,502.86468505859375 1475.611572265625,479.99932861328125 C1469.1949462890625,457.41546630859375 1445.5633544921875,445.29205322265625 1423.076904296875,452.94964599609375 C1398.2060546875,461.41937255859375 1390.80322265625,484.73468017578125 1397.171630859375,505.58843994140625 M1428.4168701171875,467.2864990234375 C1443.1903076171875,462.1905517578125 1458.8076171875,471.68365478515625 1462.375244140625,486.36578369140625 C1466.1888427734375,502.059814453125 1458.9302978515625,516.0201416015625 1446.7744140625,519.7818603515625 C1430.0482177734375,524.9581909179688 1415.8524169921875,514.63525390625 1411.96533203125,501.90740966796875 C1408.4940185546875,490.54010009765625 1410.5576171875,473.44610595703125 1428.4168701171875,467.2864990234375 M1910.1629638671875,469.125 C1903.08447265625,467.10369873046875 1897.845947265625,466.42559814453125 1892.614990234375,465.68414306640625 C1880.772216796875,464.00604248046875 1870.480224609375,465.5987548828125 1869.0850830078125,474.55548095703125 C1867.3900146484375,485.4371337890625 1879.91357421875,486.3114013671875 1887.5623779296875,487.8944091796875 C1893.1923828125,489.05950927734375 1900.4940185546875,491.4173583984375 1904.76708984375,495.1917724609375 C1909.056884765625,498.9808349609375 1910.46630859375,504.59613037109375 1910.515380859375,509.99560546875 C1910.5836181640625,517.472412109375 1906.7135009765625,523.8985595703125 1902.7113037109375,527.5625610351562 C1899.0283203125,530.93408203125 1893.5108642578125,532.8042602539062 1887.810791015625,533.10546875 C1879.935302734375,533.5220336914062 1867.57568359375,531.255615234375 1859.371337890625,528.9948120117188 C1859.9864501953125,525.6976928710938 1860.6014404296875,522.4005737304688 1861.216552734375,519.103759765625 C1871.9130859375,521.9893188476562 1877.58544921875,522.7294311523438 1883.9534912109375,522.17041015625 C1894.9739990234375,521.203125 1898.4393310546875,517.119873046875 1898.6510009765625,511.3240966796875 C1898.828369140625,506.46435546875 1895.9656982421875,502.1158447265625 1887.7449951171875,500.326416015625 C1880.2113037109375,498.68634033203125 1877.9788818359375,497.9525146484375 1867.103271484375,495.6527099609375 C1859.528564453125,494.05133056640625 1853.5340576171875,482.03863525390625 1855.0699462890625,472.2886962890625 C1855.8590087890625,467.2801513671875 1859.76171875,459.34808349609375 1868.5128173828125,455.11566162109375 C1878.45458984375,450.30792236328125 1891.3603515625,449.60211181640625 1912.6563720703125,456.60528564453125 C1911.8251953125,460.7783203125 1910.9940185546875,464.95166015625 1910.1629638671875,469.125 M1702.6541748046875,517.6021728515625 C1697.499755859375,515.4551391601562 1695.065185546875,514.3594360351562 1690.393310546875,512.4541625976562 C1689.92236328125,510.1236572265625 1689.2208251953125,506.74786376953125 1688.634521484375,503.8946533203125 C1694.5675048828125,502.715576171875 1699.422119140625,502.802001953125 1704.58154296875,505.23553466796875 C1709.6575927734375,507.6297607421875 1712.4481201171875,511.75775146484375 1713.22705078125,515.6792602539062 C1713.9423828125,519.2805786132812 1713.878662109375,519.5750732421875 1714.804443359375,525.162353515625 C1690.4912109375,536.0276489257812 1673.744873046875,532.9076538085938 1663.912109375,527.2579956054688 C1654.122314453125,521.6334228515625 1646.76416015625,506.46368408203125 1646.478759765625,492.59375 C1646.26513671875,482.2164306640625 1651.4163818359375,469.61932373046875 1658.9097900390625,463.61712646484375 C1666.2220458984375,457.76007080078125 1674.8245849609375,453.31787109375 1699.5235595703125,450.880615234375 C1700.274169921875,455.810791015625 1701.024658203125,460.740966796875 1701.7752685546875,465.671142578125 C1674.521728515625,470.1123046875 1669.283935546875,473.5428466796875 1664.6109619140625,481.8165283203125 C1660.6070556640625,488.9053955078125 1662.5325927734375,498.61895751953125 1663.91259765625,503.47540283203125 C1665.2767333984375,508.2764892578125 1670.2286376953125,514.484130859375 1675.657470703125,517.2132568359375 C1681.5469970703125,520.173828125 1690.9609375,520.41162109375 1702.6541748046875,517.6021728515625 M1551.4581298828125,505.58843994140625 C1558.5889892578125,528.9387817382812 1583.8470458984375,536.0169677734375 1603.444091796875,531.2385864257812 C1625.9315185546875,525.75537109375 1636.39501953125,502.86468505859375 1629.898193359375,479.99932861328125 C1623.4814453125,457.41546630859375 1599.8499755859375,445.29205322265625 1577.363525390625,452.94964599609375 C1552.492431640625,461.41937255859375 1545.08984375,484.73468017578125 1551.4581298828125,505.58843994140625 M1582.7034912109375,467.2864990234375 C1597.4769287109375,462.1905517578125 1613.09423828125,471.68365478515625 1616.661865234375,486.36578369140625 C1620.4754638671875,502.059814453125 1613.216796875,516.0201416015625 1601.0609130859375,519.7818603515625 C1584.334716796875,524.9581909179688 1570.138916015625,514.63525390625 1566.2518310546875,501.90740966796875 C1562.780517578125,490.54010009765625 1564.84423828125,473.44610595703125 1582.7034912109375,467.2864990234375 M1797.388427734375,516.3406982421875 C1797.4139404296875,521.029052734375 1798.48291015625,521.6243896484375 1804.07470703125,521.7438354492188 C1809.2791748046875,521.855224609375 1823.4835205078125,521.7758178710938 1831.1925048828125,521.7758178710938 C1831.72509765625,525.1243286132812 1832.257568359375,528.4724731445312 1832.7901611328125,531.8209838867188 C1817.0537109375,531.8209838867188 1801.3173828125,531.8209838867188 1785.5809326171875,531.8209838867188 C1784.1180419921875,505.1204833984375 1782.655029296875,478.41998291015625 1781.192138671875,451.719482421875 C1807.461181640625,454.0953369140625 1810.01708984375,453.70343017578125 1835.32861328125,453.83319091796875 C1836.014892578125,458.14727783203125 1836.701416015625,462.46173095703125 1837.3878173828125,466.77581787109375 C1829.13720703125,466.77581787109375 1808.69873046875,466.74884033203125 1803.493408203125,466.8118896484375 C1799.0850830078125,466.865234375 1797.41357421875,468.458251953125 1797.388427734375,472.6793212890625 C1797.376708984375,474.65423583984375 1797.310302734375,486.01153564453125 1797.310302734375,488.68927001953125 C1806.944580078125,488.647216796875 1816.5787353515625,488.605224609375 1826.2127685546875,488.56317138671875 C1825.385498046875,492.87261962890625 1824.5582275390625,497.181396484375 1823.73095703125,501.490478515625 C1814.9239501953125,501.490478515625 1806.1173095703125,501.490478515625 1797.310302734375,501.490478515625 C1797.310302734375,504.76788330078125 1797.377685546875,514.36572265625 1797.388427734375,516.3406982421875 M1242.3314208984375,1060.0986328125 C1234.9765625,1058.6355285644531 1228.4957275390625,1054.6281127929688 1220.2666015625,1055.7093200683594 C1212.855712890625,1056.6827697753906 1207.067626953125,1062.0783996582031 1204.9674072265625,1068.6149291992188 C1202.32080078125,1076.8525695800781 1206.068115234375,1084.707275390625 1214.9132080078125,1087.9822082519531 C1229.7476806640625,1093.4743957519531 1249.30126953125,1089.6427917480469 1263.21240234375,1101.5065612792969 C1273.1959228515625,1110.0208740234375 1276.1309814453125,1118.138916015625 1276.4903564453125,1128.6716918945312 C1277.0147705078125,1144.0410614013672 1270.9881591796875,1155.1300201416016 1259.871826171875,1162.5592803955078 C1249.1871337890625,1169.6998748779297 1232.4569091796875,1172.0065155029297 1213.6131591796875,1170.4682006835938 C1198.2713623046875,1169.2157287597656 1181.0670166015625,1164.5992584228516 1165.2353515625,1159.6422424316406 C1167.75537109375,1150.4294891357422 1170.2755126953125,1141.2167358398438 1172.795654296875,1132.0039978027344 C1185.113037109375,1135.1058044433594 1196.677001953125,1138.9167785644531 1209.7479248046875,1141.3091430664062 C1224.0860595703125,1143.9333190917969 1231.3878173828125,1139.98095703125 1234.0245361328125,1132.1924438476562 C1236.954345703125,1123.5388793945312 1226.570556640625,1116.8202514648438 1217.1988525390625,1114.1493530273438 C1200.1663818359375,1109.2950744628906 1185.2320556640625,1106.7594299316406 1164.50830078125,1100.3338012695312 C1145.0838623046875,1094.3114318847656 1133.9385986328125,1074.4451904296875 1135.5848388671875,1057.4175720214844 C1137.1859130859375,1040.8579406738281 1150.1904296875,1027.6873168945312 1168.8328857421875,1020.0870971679688 C1194.1209716796875,1009.7778015136719 1221.433837890625,1007.1162719726562 1262.696533203125,1025.3194580078125 C1255.9083251953125,1036.9125671386719 1249.119873046875,1048.5055236816406 1242.3314208984375,1060.0986328125 M1423.079345703125,1059.9350280761719 C1400.3944091796875,1070.3795776367188 1377.615478515625,1078.8882141113281 1355.0244140625,1090.4071044921875 C1341.456298828125,1097.3250427246094 1341.12158203125,1113.6460266113281 1345.3458251953125,1123.0519104003906 C1349.706787109375,1132.7619934082031 1356.662841796875,1137.6431274414062 1368.3853759765625,1139.8952331542969 C1379.816162109375,1142.09130859375 1399.96142578125,1141.9320373535156 1420.421875,1134.3466491699219 C1425.072509765625,1143.2050170898438 1429.723388671875,1152.063705444336 1434.3740234375,1160.9222412109375 C1399.161376953125,1175.7601013183594 1364.0889892578125,1172.7388305664062 1341.8828125,1166.5064849853516 C1316.4454345703125,1159.3672332763672 1294.870361328125,1132.3682250976562 1294.18798828125,1103.1202697753906 C1293.67724609375,1081.237060546875 1306.01220703125,1057.0024719238281 1324.0853271484375,1044.6538696289062 C1337.116943359375,1035.7501525878906 1364.1943359375,1025.8296203613281 1398.4969482421875,1011.4345397949219 C1406.691162109375,1027.6014404296875 1414.88525390625,1043.7681579589844 1423.079345703125,1059.9350280761719 M1492.74365234375,1123.542724609375 C1500.1849365234375,1132.6962585449219 1506.1572265625,1136.0500793457031 1517.894775390625,1138.22314453125 C1533.6475830078125,1141.1395263671875 1547.792236328125,1138.1394348144531 1565.7308349609375,1131.2742004394531 C1570.3814697265625,1140.1327209472656 1575.0322265625,1148.9912414550781 1579.6829833984375,1157.8497619628906 C1544.4703369140625,1172.6876220703125 1512.78125,1171.1759948730469 1488.590087890625,1164.4915313720703 C1463.1240234375,1157.454833984375 1440.8916015625,1126.2039184570312 1439.496826171875,1096.9754943847656 C1438.2464599609375,1070.7756652832031 1449.572265625,1042.77783203125 1469.9637451171875,1028.1529541015625 C1487.934326171875,1015.2643432617188 1515.6474609375,1008.0098571777344 1542.5767822265625,1016.3505249023438 C1567.5802001953125,1024.0950012207031 1584.2060546875,1046.3389587402344 1594.248291015625,1073.2947692871094 C1560.413330078125,1090.044189453125 1526.5784912109375,1106.7933044433594 1492.74365234375,1123.542724609375 M1483.4169921875,1096.1149291992188 C1499.884765625,1087.9658813476562 1516.3525390625,1079.8168029785156 1532.8203125,1071.6679077148438 C1528.985595703125,1065.2831420898438 1519.548583984375,1059.7901000976562 1509.92626953125,1059.6773681640625 C1500.6539306640625,1059.5687866210938 1490.34423828125,1065.0416564941406 1485.592041015625,1072.5047607421875 C1481.2474365234375,1079.3276672363281 1480.0885009765625,1089.9217834472656 1483.4169921875,1096.1149291992188 M1605.5181884765625,1012.9460144042969 C1613.9315185546875,1062.4533081054688 1622.3448486328125,1111.9607849121094 1630.7581787109375,1161.4680786132812 C1639.359130859375,1164.3802947998047 1647.960205078125,1167.2926635742188 1656.5611572265625,1170.2050323486328 C1656.8846435546875,1119.3985595703125 1657.2083740234375,1068.5924377441406 1657.5318603515625,1017.7861328125 C1640.1939697265625,1016.1727600097656 1622.8560791015625,1014.5593872070312 1605.5181884765625,1012.9460144042969 M1681.7740478515625,1012.9460144042969 C1690.1873779296875,1062.4533081054688 1698.6007080078125,1111.9607849121094 1707.01416015625,1161.4680786132812 C1715.06298828125,1164.3802947998047 1723.112060546875,1167.2926635742188 1731.1610107421875,1170.2050323486328 C1731.4844970703125,1119.3985595703125 1731.80810546875,1068.5924377441406 1732.1317138671875,1017.7861328125 C1715.3458251953125,1016.1727600097656 1698.5599365234375,1014.5593872070312 1681.7740478515625,1012.9460144042969 M1830.6258544921875,1012.9645385742188 C1858.36083984375,1029.1979675292969 1878.64111328125,1053.1878662109375 1891.9991455078125,1075.5894165039062 C1905.000732421875,1097.3932495117188 1909.3834228515625,1129.190185546875 1910.911865234375,1155.7587432861328 C1889.021484375,1164.2868957519531 1863.587158203125,1172.2271575927734 1839.0191650390625,1172.0111846923828 C1816.9422607421875,1171.8172302246094 1801.96826171875,1170.4668579101562 1783.31396484375,1161.2607879638672 C1767.2877197265625,1153.3516998291016 1757.6295166015625,1139.6727600097656 1756.0648193359375,1120.16455078125 C1754.7906494140625,1104.2761840820312 1767.2314453125,1087.7193908691406 1782.7113037109375,1079.2109069824219 C1798.6427001953125,1070.4542846679688 1803.2542724609375,1069.3969421386719 1820.9512939453125,1064.0281677246094 C1812.5157470703125,1054.8656005859375 1808.22314453125,1051.8056335449219 1790.5833740234375,1042.2863464355469 C1803.9307861328125,1032.5124206542969 1817.2783203125,1022.7384643554688 1830.6258544921875,1012.9645385742188 M1847.2078857421875,1095.5210571289062 C1834.310302734375,1097.1337585449219 1824.9344482421875,1098.6830749511719 1814.578369140625,1104.2648315429688 C1805.111083984375,1109.3676147460938 1797.7314453125,1117.9945068359375 1800.406982421875,1127.0774841308594 C1802.7763671875,1135.1210021972656 1811.205810546875,1141.7996215820312 1820.454345703125,1142.9772033691406 C1830.0,1144.1926574707031 1850.0438232421875,1144.2860412597656 1864.4456787109375,1138.7558288574219 C1863.0537109375,1130.772705078125 1861.0992431640625,1122.2110290527344 1857.7615966796875,1114.5801391601562 C1854.518310546875,1107.1647033691406 1851.25830078125,1101.9495239257812 1847.2078857421875,1095.5210571289062 M1049.1533203125,1012.9645385742188 C1076.88818359375,1029.1979675292969 1097.16845703125,1053.1878662109375 1110.5264892578125,1075.5894165039062 C1123.5281982421875,1097.3932495117188 1127.9107666015625,1129.190185546875 1129.439453125,1155.7587432861328 C1107.548828125,1164.2868957519531 1082.1146240234375,1172.2271575927734 1057.5465087890625,1172.0111846923828 C1035.4696044921875,1171.8172302246094 1020.4957275390625,1170.4668579101562 1001.84130859375,1161.2607879638672 C985.815185546875,1153.3516998291016 976.156982421875,1139.6727600097656 974.59228515625,1120.16455078125 C973.3179931640625,1104.2761840820312 985.7589111328125,1087.7193908691406 1001.2387084960938,1079.2109069824219 C1017.1701049804688,1070.4542846679688 1021.7816772460938,1069.3969421386719 1039.4788818359375,1064.0281677246094 C1031.0430908203125,1054.8656005859375 1026.75048828125,1051.8056335449219 1009.1107788085938,1042.2863464355469 C1022.458251953125,1032.5124206542969 1035.8057861328125,1022.7384643554688 1049.1533203125,1012.9645385742188 M1065.7352294921875,1095.5210571289062 C1052.837646484375,1097.1337585449219 1043.4620361328125,1098.6830749511719 1033.105712890625,1104.2648315429688 C1023.6384887695312,1109.3676147460938 1016.2589111328125,1117.9945068359375 1018.9345092773438,1127.0774841308594 C1021.3037719726562,1135.1210021972656 1029.7333984375,1141.7996215820312 1038.9818115234375,1142.9772033691406 C1048.52734375,1144.1926574707031 1068.5712890625,1144.2860412597656 1082.972900390625,1138.7558288574219 C1081.5810546875,1130.772705078125 1079.626708984375,1122.2110290527344 1076.2889404296875,1114.5801391601562 C1073.0457763671875,1107.1647033691406 1069.7857666015625,1101.9495239257812 1065.7352294921875,1095.5210571289062 M584.471923828125,1069.3917846679688 C597.3041381835938,1104.6824340820312 617.357421875,1139.7014465332031 647.3009033203125,1171.5557250976562 C677.5629272460938,1203.7487487792969 717.9266967773438,1232.7093505859375 771.1473999023438,1255.4507904052734 C766.287841796875,1155.2137298583984 745.922607421875,1062.2960510253906 677.67041015625,982.4300842285156 C609.9766235351562,1021.68896484375 541.9191284179688,1084.6989440917969 498.430908203125,1183.53759765625 C513.681396484375,1184.1539916992188 528.90087890625,1183.3703155517578 544.1358642578125,1183.2867736816406 C565.369384765625,1204.8716278076172 590.4508056640625,1225.7567138671875 623.5731201171875,1241.7564849853516 C565.9440307617188,1234.6267395019531 520.3638305664062,1229.9679260253906 464.3232116699219,1205.701171875 C471.2930603027344,1139.1482543945312 499.00421142578125,1077.56201171875 535.081298828125,1026.2055358886719 C589.5442504882812,948.6765747070312 663.0739135742188,894.4612426757812 713.0958862304688,881.6668701171875 C794.7434692382812,940.2900085449219 829.944091796875,999.2123718261719 838.7426147460938,1063.9662780761719 C848.1424560546875,1133.1457214355469 827.4078369140625,1208.9811096191406 800.981201171875,1298.2175979614258 C743.901123046875,1284.4555892944336 680.9706420898438,1266.8534545898438 628.5474243164062,1236.5384674072266 C588.0540161132812,1213.1224365234375 555.5913696289062,1181.1433868408203 526.9218139648438,1147.7781219482422 C545.1453857421875,1117.0683898925781 560.2498168945312,1095.8959655761719 584.471923828125,1069.3917846679688 M1734.2879638671875,1211.8319396972656 C1741.85888671875,1211.8319396972656 1749.4298095703125,1211.8319396972656 1757.000732421875,1211.8319396972656 C1757.000732421875,1238.5324249267578 1757.000732421875,1265.2330780029297 1757.000732421875,1291.9335556030273 C1751.1678466796875,1290.195442199707 1745.3349609375,1288.4574890136719 1739.5020751953125,1286.7193756103516 C1737.7640380859375,1261.7570037841797 1736.0260009765625,1236.7944641113281 1734.2879638671875,1211.8319396972656 M1493.9356689453125,1211.8319396972656 C1500.8818359375,1212.9129638671875 1507.828125,1213.9938201904297 1514.7744140625,1215.0748596191406 C1514.7744140625,1233.8916015625 1514.7744140625,1251.7444152832031 1514.7744140625,1271.5254516601562 C1514.7744140625,1275.9020919799805 1516.357421875,1276.7209548950195 1521.300048828125,1277.7941436767578 C1529.416015625,1279.5562744140625 1530.1434326171875,1279.7322235107422 1534.5650634765625,1280.7011795043945 C1535.2265625,1284.4452438354492 1535.8880615234375,1288.1894836425781 1536.549560546875,1291.9335556030273 C1525.943603515625,1291.9335556030273 1520.048583984375,1292.0219497680664 1504.7318115234375,1291.9335556030273 C1498.2977294921875,1291.896369934082 1497.378662109375,1290.1190567016602 1497.0811767578125,1283.142578125 C1496.0511474609375,1258.9859008789062 1494.984130859375,1235.6022033691406 1493.9356689453125,1211.8319396972656 M1303.435791015625,1215.5057983398438 C1310.65576171875,1216.4709167480469 1317.8756103515625,1217.4362030029297 1325.0955810546875,1218.4014892578125 C1334.2786865234375,1231.4126739501953 1344.5245361328125,1245.740219116211 1352.8670654296875,1256.9806060791016 C1354.435791015625,1259.0941314697266 1358.907470703125,1257.3560180664062 1358.68603515625,1254.5345306396484 C1357.8486328125,1243.8618469238281 1356.470947265625,1227.9481201171875 1355.3631591796875,1214.6547546386719 C1362.80322265625,1213.881088256836 1370.2431640625,1213.1075897216797 1377.683349609375,1212.3342590332031 C1377.683349609375,1238.8673095703125 1377.683349609375,1265.4005126953125 1377.683349609375,1291.9335556030273 C1372.2191162109375,1291.9335556030273 1366.7550048828125,1291.9335556030273 1361.290771484375,1291.9335556030273 C1351.6973876953125,1279.290771484375 1342.943603515625,1267.7883758544922 1332.9913330078125,1255.903076171875 C1330.740478515625,1253.2151794433594 1327.3310546875,1254.5834045410156 1327.3189697265625,1257.32666015625 C1327.265380859375,1269.4589538574219 1327.3201904296875,1280.3978118896484 1327.3209228515625,1291.9335556030273 C1321.626953125,1290.4647827148438 1315.9327392578125,1288.995834350586 1310.2386474609375,1287.5270614624023 C1307.89453125,1261.0829010009766 1305.7034912109375,1239.512710571289 1303.435791015625,1215.5057983398438 M1211.8486328125,1211.8319396972656 C1219.8306884765625,1212.5579071044922 1227.8125,1213.2838745117188 1235.7945556640625,1214.0096740722656 C1235.7945556640625,1222.1752471923828 1235.7945556640625,1229.6150207519531 1235.7945556640625,1238.506576538086 C1235.7945556640625,1241.1164093017578 1237.62841796875,1242.9234161376953 1240.2421875,1242.988784790039 C1243.326416015625,1243.066162109375 1253.1007080078125,1242.95458984375 1256.185302734375,1242.8943939208984 C1259.5521240234375,1242.828353881836 1261.80078125,1241.8333740234375 1261.4737548828125,1237.9815673828125 C1260.7403564453125,1229.3426818847656 1260.06494140625,1222.0003051757812 1259.360595703125,1214.0096740722656 C1267.09423828125,1214.0096740722656 1274.8277587890625,1214.0096740722656 1282.5615234375,1214.0096740722656 C1282.5615234375,1239.984359741211 1282.5615234375,1265.9588775634766 1282.5615234375,1291.9335556030273 C1277.056640625,1291.9335556030273 1271.5518798828125,1291.9335556030273 1266.047119140625,1291.9335556030273 C1265.2154541015625,1282.2331619262695 1264.4932861328125,1272.993392944336 1263.5322265625,1263.0491638183594 C1263.18701171875,1259.4768829345703 1261.75537109375,1259.170181274414 1257.8050537109375,1259.238052368164 C1252.724365234375,1259.325439453125 1245.5460205078125,1259.1778564453125 1240.4658203125,1259.3037567138672 C1237.8389892578125,1259.3688049316406 1235.7945556640625,1260.5719146728516 1235.7945556640625,1263.5506591796875 C1235.7945556640625,1273.0115661621094 1235.7945556640625,1282.4724807739258 1235.7945556640625,1291.9335556030273 C1230.04150390625,1290.8843841552734 1220.3082275390625,1288.786033630371 1218.53515625,1288.786033630371 C1216.1474609375,1262.0817108154297 1214.0775146484375,1237.4832458496094 1211.8486328125,1211.8319396972656 M993.1265869140625,1230.2681121826172 C995.0276489257812,1230.2352600097656 996.8274536132812,1230.2322540283203 998.26416015625,1231.4180145263672 C1000.1561279296875,1232.9795227050781 1000.0989379882812,1234.8223724365234 1000.0382080078125,1236.0478210449219 C1000.0382080078125,1248.0885620117188 1001.9574584960938,1271.5341186523438 1002.9168090820312,1289.2771835327148 C1008.3184204101562,1290.1627502441406 1013.719970703125,1291.0481567382812 1019.1213989257812,1291.9335556030273 C1019.1206665039062,1273.3049240112305 1019.1193237304688,1248.0885620117188 1019.1193237304688,1236.0478210449219 C1019.0587768554688,1234.8223724365234 1019.0015869140625,1232.9795227050781 1020.8934326171875,1231.4180145263672 C1022.330078125,1230.2322540283203 1024.1298828125,1230.2352600097656 1026.031005859375,1230.2681121826172 C1029.525146484375,1230.3286590576172 1035.9466552734375,1230.2891235351562 1040.904541015625,1230.2994689941406 C1040.904541015625,1224.952865600586 1040.904541015625,1219.6062622070312 1040.904541015625,1214.2596588134766 C1003.9552001953125,1214.0765380859375 1010.215576171875,1213.8802490234375 983.0921020507812,1211.8319396972656 C981.6860961914062,1217.9877319335938 980.2800903320312,1224.1435089111328 978.8740844726562,1230.2994689941406 C983.6249389648438,1230.2891235351562 989.632568359375,1230.3286590576172 993.1265869140625,1230.2681121826172 M1076.3621826171875,1275.9891510009766 C1076.3876953125,1280.677490234375 1078.4482421875,1281.8035507202148 1083.711669921875,1281.856918334961 C1088.9169921875,1281.9092864990234 1096.6728515625,1281.8886032104492 1104.3818359375,1281.8886032104492 C1105.07861328125,1285.2370910644531 1105.7750244140625,1288.5854034423828 1106.4718017578125,1291.9338912963867 C1090.7354736328125,1291.9338912963867 1074.9990234375,1291.9338912963867 1059.2626953125,1291.9338912963867 C1057.7996826171875,1265.2332458496094 1056.3367919921875,1238.5327606201172 1054.873779296875,1211.832275390625 C1081.142822265625,1214.2082977294922 1083.250244140625,1213.8163757324219 1108.5616455078125,1213.9456329345703 C1109.3975830078125,1219.1498107910156 1110.233642578125,1224.3538208007812 1111.0694580078125,1229.5578308105469 C1102.81884765625,1229.5578308105469 1088.9169921875,1229.5413055419922 1083.711669921875,1229.594009399414 C1078.4482421875,1229.647216796875 1076.3876953125,1230.772933959961 1076.3621826171875,1235.4614562988281 C1076.3516845703125,1237.4363861083984 1076.2841796875,1248.040023803711 1076.2841796875,1250.7179107666016 C1084.0931396484375,1250.7179107666016 1091.90234375,1250.7179107666016 1099.71142578125,1250.7179107666016 C1098.945068359375,1254.5765686035156 1098.1788330078125,1258.4353790283203 1097.4124755859375,1262.294189453125 C1090.3697509765625,1262.294189453125 1083.326904296875,1262.294189453125 1076.2841796875,1262.294189453125 C1076.2841796875,1265.5712890625 1076.3516845703125,1274.0142135620117 1076.3621826171875,1275.9891510009766 M1186.877685546875,1231.453872680664 C1162.8004150390625,1234.3944244384766 1156.574462890625,1235.4898071289062 1150.383056640625,1243.2632904052734 C1145.310791015625,1249.6318817138672 1147.468017578125,1258.3983459472656 1148.84814453125,1263.254638671875 C1150.21240234375,1268.0555572509766 1156.1202392578125,1275.411277770996 1162.3541259765625,1277.8188247680664 C1167.5091552734375,1279.8099365234375 1177.458984375,1280.8611145019531 1186.5257568359375,1278.2831192016602 C1187.5675048828125,1281.6724700927734 1188.6094970703125,1285.0618133544922 1189.6513671875,1288.4513244628906 C1174.285400390625,1294.316421508789 1156.8817138671875,1292.9573822021484 1147.01318359375,1287.3709564208984 C1137.126953125,1281.7742004394531 1129.8653564453125,1266.5762634277344 1129.5797119140625,1252.7063598632812 C1129.3663330078125,1242.3290252685547 1134.5067138671875,1229.1427307128906 1141.89013671875,1223.0054473876953 C1149.081787109375,1217.0279388427734 1158.1671142578125,1213.4304656982422 1182.8662109375,1210.9930572509766 C1184.2034912109375,1217.8134460449219 1185.5406494140625,1224.6336669921875 1186.877685546875,1231.453872680664 M1397.171630859375,1265.7012023925781 C1404.302490234375,1289.0515365600586 1429.560546875,1296.1294174194336 1449.157470703125,1291.3513488769531 C1471.64501953125,1285.8681640625 1482.1083984375,1262.977294921875 1475.611572265625,1240.1121063232422 C1469.1949462890625,1217.5282592773438 1445.5633544921875,1205.4048156738281 1423.076904296875,1213.0625610351562 C1398.2059326171875,1221.5321655273438 1390.80322265625,1244.8473052978516 1397.171630859375,1265.7012023925781 M1429.49462890625,1231.2299041748047 C1442.4921875,1226.7466888427734 1456.2325439453125,1235.0990447998047 1459.3712158203125,1248.016342163086 C1462.7264404296875,1261.8240509033203 1456.34033203125,1274.1061096191406 1445.6455078125,1277.4157333374023 C1430.9298095703125,1281.9699935913086 1418.4403076171875,1272.887825012207 1415.0205078125,1261.6896362304688 C1411.96630859375,1251.688705444336 1413.781982421875,1236.6497192382812 1429.49462890625,1231.2299041748047 M1802.871337890625,1275.9891510009766 C1802.8968505859375,1280.677490234375 1804.95751953125,1281.8035507202148 1810.2208251953125,1281.856918334961 C1815.4261474609375,1281.9092864990234 1823.1820068359375,1281.8886032104492 1830.8909912109375,1281.8886032104492 C1831.587646484375,1285.2370910644531 1832.2841796875,1288.5854034423828 1832.9808349609375,1291.9338912963867 C1817.2445068359375,1291.9338912963867 1801.5081787109375,1291.9338912963867 1785.771728515625,1291.9338912963867 C1784.3087158203125,1265.2332458496094 1782.8458251953125,1238.5327606201172 1781.3829345703125,1211.832275390625 C1807.6519775390625,1214.2082977294922 1809.7591552734375,1213.8163757324219 1835.0706787109375,1213.9456329345703 C1835.9066162109375,1219.1498107910156 1836.74267578125,1224.3538208007812 1837.57861328125,1229.5578308105469 C1829.3280029296875,1229.5578308105469 1815.4261474609375,1229.5413055419922 1810.2208251953125,1229.594009399414 C1804.95751953125,1229.6470489501953 1802.8968505859375,1230.772933959961 1802.871337890625,1235.4614562988281 C1802.860595703125,1237.4363861083984 1802.793212890625,1248.040023803711 1802.793212890625,1250.7179107666016 C1810.602294921875,1250.7179107666016 1818.4114990234375,1250.7179107666016 1826.220458984375,1250.7179107666016 C1825.4542236328125,1254.5765686035156 1824.68798828125,1258.4353790283203 1823.921630859375,1262.294189453125 C1816.87890625,1262.294189453125 1809.8360595703125,1262.294189453125 1802.793212890625,1262.294189453125 C1802.793212890625,1265.5712890625 1802.860595703125,1274.0142135620117 1802.871337890625,1275.9891510009766 M1908.5146484375,1231.2140502929688 C1901.436279296875,1229.1924285888672 1897.7122802734375,1228.4032440185547 1892.4552001953125,1227.879409790039 C1885.25830078125,1227.1622772216797 1874.4127197265625,1229.6622161865234 1873.7066650390625,1235.3815612792969 C1872.81884765625,1242.572509765625 1881.336181640625,1245.6009674072266 1889.2716064453125,1247.3329010009766 C1894.8887939453125,1248.5588684082031 1902.0162353515625,1251.2764434814453 1906.289306640625,1255.0508728027344 C1910.5791015625,1258.8397979736328 1912.2421875,1264.7090759277344 1912.2913818359375,1270.1083679199219 C1912.3594970703125,1277.5851745605469 1907.9820556640625,1284.0112991333008 1903.9798583984375,1287.6751556396484 C1900.2967529296875,1291.0466537475586 1894.7794189453125,1292.9168548583984 1889.0792236328125,1293.2183837890625 C1881.2037353515625,1293.6348190307617 1868.84423828125,1291.3685302734375 1860.639892578125,1289.1075744628906 C1861.6688232421875,1285.5087661743164 1862.6978759765625,1281.9101181030273 1863.7269287109375,1278.3114776611328 C1874.4234619140625,1281.1971588134766 1878.838134765625,1281.493019104004 1885.221923828125,1281.1621398925781 C1893.0228271484375,1280.7578811645508 1897.4658203125,1276.5920333862305 1897.99755859375,1271.5969924926758 C1898.5123291015625,1266.7613830566406 1892.8291015625,1262.8690490722656 1887.9703369140625,1261.7203216552734 C1880.467041015625,1259.9466705322266 1877.3564453125,1259.057601928711 1866.7386474609375,1255.7656555175781 C1856.7864990234375,1252.68017578125 1854.0672607421875,1239.7532043457031 1855.0699462890625,1232.4016571044922 C1855.908447265625,1226.2538604736328 1859.342041015625,1218.392318725586 1868.95458984375,1214.6512451171875 C1879.8841552734375,1210.3976745605469 1888.958984375,1208.2021026611328 1912.6563720703125,1215.365707397461 C1911.2757568359375,1220.6482696533203 1909.8951416015625,1225.931167602539 1908.5146484375,1231.2140502929688 M1551.7420654296875,1265.7012023925781 C1558.8729248046875,1289.0515365600586 1584.1309814453125,1296.1294174194336 1603.7279052734375,1291.3513488769531 C1626.2154541015625,1285.8681640625 1636.6788330078125,1262.977294921875 1630.18212890625,1240.1121063232422 C1623.765380859375,1217.5282592773438 1600.1339111328125,1205.5620727539062 1577.6473388671875,1213.2200012207031 C1552.7763671875,1221.6897735595703 1545.373779296875,1244.8473052978516 1551.7420654296875,1265.7012023925781 M1584.0650634765625,1231.3873291015625 C1597.062744140625,1226.9041137695312 1610.802978515625,1235.0990447998047 1613.941650390625,1248.016342163086 C1617.296875,1261.8240509033203 1610.91064453125,1274.1061096191406 1600.216064453125,1277.4157333374023 C1585.500244140625,1281.9699935913086 1573.0107421875,1272.887825012207 1569.5909423828125,1261.6896362304688 C1566.5367431640625,1251.688705444336 1568.3524169921875,1236.807144165039 1584.0650634765625,1231.3873291015625 M1698.677490234375,1278.6745376586914 C1694.0968017578125,1275.8395538330078 1691.1339111328125,1275.1297607421875 1686.7392578125,1272.6231536865234 C1686.2681884765625,1270.2926635742188 1685.338623046875,1264.9552307128906 1684.6383056640625,1261.1214294433594 C1691.2161865234375,1259.728042602539 1698.105224609375,1260.7773742675781 1703.34814453125,1263.786148071289 C1708.216064453125,1266.5797729492188 1711.018798828125,1271.219253540039 1712.2760009765625,1275.9292755126953 C1713.2227783203125,1279.4765548706055 1713.63330078125,1281.0907592773438 1714.97119140625,1286.6093063354492 C1690.657958984375,1297.4742813110352 1673.780517578125,1292.9573822021484 1663.912109375,1287.3709564208984 C1654.0257568359375,1281.7742004394531 1646.76416015625,1266.5762634277344 1646.478759765625,1252.7063598632812 C1646.26513671875,1242.3290252685547 1651.40576171875,1229.1427307128906 1658.7890625,1223.0054473876953 C1665.980712890625,1217.0279388427734 1675.066162109375,1213.4304656982422 1699.76513671875,1210.9930572509766 C1701.102294921875,1217.8134460449219 1702.4393310546875,1224.6336669921875 1703.7764892578125,1231.453872680664 C1679.69921875,1234.3944244384766 1673.4732666015625,1235.4898071289062 1667.281982421875,1243.2632904052734 C1662.209716796875,1249.6318817138672 1664.366943359375,1258.398178100586 1665.7470703125,1263.254638671875 C1667.111328125,1268.0555572509766 1670.91357421875,1274.3227462768555 1676.3424072265625,1277.0516662597656 C1682.2318115234375,1280.0122299194336 1688.010498046875,1280.9565048217773 1698.677490234375,1278.6745376586914 "
          id="id001"
          style="opacity:1; stroke:#0636A6; stroke-width:3.0; fill:#0636A6; stroke-linecap:round; stroke-linejoin:miter; stroke-miterlimit:4; "></path>
</svg>
